<?xml version="1.0" standalone="no"?>
<!DOCTYPE svg PUBLIC "-//W3C//DTD SVG 20010904//EN"
 "http://www.w3.org/TR/2001/REC-SVG-20010904/DTD/svg10.dtd">
<svg version="1.0" xmlns="http://www.w3.org/2000/svg"
 width="1280.000000pt" height="1099.000000pt" viewBox="0 0 1280.000000 1099.000000"
 preserveAspectRatio="xMidYMid meet">
<metadata>
Created by potrace 1.15, written by Peter Selinger 2001-2017
</metadata>
<g transform="translate(0.000000,1099.000000) scale(0.100000,-0.100000)"
fill="#000000" stroke="none">
<path d="M8669 10949 c-90 -98 -149 -258 -156 -429 -4 -98 -1 -132 21 -230 36
-164 57 -217 122 -312 71 -102 287 -321 369 -374 33 -21 62 -40 64 -41 3 -2 0
-8 -6 -14 -25 -25 -324 39 -457 97 -133 58 -225 120 -331 223 -119 115 -200
160 -345 190 -52 11 -140 30 -195 42 -91 19 -119 21 -300 15 -564 -17 -760
-120 -859 -453 -32 -106 -42 -184 -57 -413 -6 -102 -16 -193 -21 -203 -20 -38
-197 -100 -403 -141 -251 -50 -614 -86 -870 -86 -172 0 -234 11 -801 144 -566
132 -740 153 -1174 141 -340 -9 -418 -15 -885 -71 -267 -31 -737 -162 -1010
-281 -352 -152 -553 -381 -739 -840 -99 -245 -132 -375 -175 -688 -97 -708
-106 -941 -71 -1855 25 -678 30 -867 30 -1163 0 -530 -20 -625 -181 -873 -167
-258 -223 -436 -235 -749 -5 -119 -2 -184 15 -314 12 -91 21 -201 21 -245 0
-126 7 -154 40 -161 34 -8 64 -39 85 -89 19 -45 14 -99 -16 -199 -10 -34 -19
-70 -19 -80 0 -17 2 -17 26 2 32 25 40 21 60 -28 8 -21 26 -43 39 -49 23 -11
24 -12 10 -46 -25 -60 -16 -98 15 -61 20 24 29 18 25 -17 -2 -18 -6 -76 -10
-128 -11 -164 -52 -389 -76 -415 -17 -18 -9 -43 33 -99 46 -62 71 -76 97 -52
32 29 54 18 151 -84 53 -55 104 -100 114 -100 9 0 21 12 26 26 15 37 12 46
-10 39 -22 -7 -25 -2 -35 57 -6 38 -77 127 -119 150 -11 7 -55 17 -96 23 l-75
11 2 64 c0 36 13 135 27 220 14 85 32 242 40 348 11 141 20 204 34 235 21 46
120 157 141 157 20 0 6 -59 -19 -82 -48 -45 -92 -188 -58 -188 28 0 122 161
142 243 3 15 23 53 43 85 43 67 158 303 203 417 17 44 35 83 39 88 4 4 26 1
50 -7 39 -14 43 -14 62 5 30 30 20 51 -35 77 l-49 24 9 111 c5 62 9 198 9 302
l0 190 -34 90 c-118 318 -144 419 -160 620 -10 134 -5 295 11 338 8 20 8 31
-1 40 -15 15 -14 27 4 27 8 0 15 2 15 4 0 2 7 39 15 82 10 55 12 81 4 90 -7 8
-7 19 -1 31 5 10 15 50 21 88 7 51 16 75 32 87 l21 18 -21 36 c-30 50 -26 53
16 12 21 -20 49 -41 62 -48 36 -19 187 -24 280 -11 45 7 90 10 100 6 16 -5 91
-145 91 -171 0 -5 18 -36 40 -69 22 -33 40 -64 40 -69 0 -5 9 -28 19 -50 24
-50 71 -275 78 -371 6 -88 5 -89 -170 -121 -141 -25 -161 -34 -135 -61 12 -11
45 -18 108 -23 86 -8 120 -20 120 -43 0 -6 -24 -7 -66 -3 -52 5 -65 4 -62 -6
3 -7 24 -17 47 -22 39 -8 42 -11 37 -35 -4 -14 -11 -95 -17 -180 -10 -134 -15
-158 -35 -188 -13 -19 -25 -55 -28 -81 -22 -184 -54 -288 -106 -337 -17 -16
-33 -44 -36 -62 -3 -18 -15 -38 -25 -43 -10 -6 -56 -10 -103 -10 -79 0 -86 -2
-86 -20 0 -10 10 -29 23 -41 15 -15 18 -23 10 -26 -20 -7 -15 -41 8 -61 41
-34 41 -45 9 -181 -16 -70 -43 -171 -59 -222 -17 -56 -37 -161 -50 -259 -24
-194 -45 -279 -71 -300 -25 -20 -40 -108 -40 -231 0 -153 38 -298 89 -343 11
-11 21 -25 21 -32 0 -21 57 -71 89 -77 22 -5 44 -25 85 -80 31 -41 56 -79 56
-85 0 -18 -206 -129 -218 -117 -3 3 4 36 16 73 23 72 28 112 13 112 -11 0 -32
-46 -60 -130 -30 -92 -37 -101 -51 -65 -7 17 -14 57 -17 90 -3 33 -10 66 -15
72 -22 28 -29 -1 -22 -91 8 -107 12 -101 -102 -148 -79 -34 -79 -34 -81 -73
-4 -63 19 -149 41 -153 18 -4 18 1 13 64 -7 67 -6 68 8 36 12 -28 17 -32 34
-22 28 15 29 14 33 -27 2 -29 8 -39 23 -41 42 -6 56 18 62 108 6 88 21 128 34
93 4 -10 5 -38 2 -63 -4 -34 -1 -49 10 -59 20 -16 44 -4 85 44 17 19 34 35 36
35 3 0 6 -37 8 -82 3 -90 17 -109 43 -58 18 35 38 35 43 2 5 -35 19 -26 48 33
l27 56 19 -43 c10 -23 24 -46 30 -49 8 -5 2 -37 -20 -106 -36 -109 -36 -113
-21 -113 14 0 50 85 97 231 22 68 47 142 56 164 16 37 18 39 31 21 17 -22 13
-46 -31 -187 -43 -140 -50 -179 -33 -179 16 0 52 55 103 157 19 39 40 75 47
78 6 4 23 -5 39 -20 50 -48 89 -20 45 33 -45 53 -35 70 106 180 67 52 91 82
65 82 -8 0 -59 -34 -115 -76 -114 -86 -157 -97 -97 -25 21 24 44 58 53 75 8
16 25 37 36 46 19 16 17 40 -3 40 -5 0 -32 -28 -61 -63 -28 -34 -59 -72 -70
-84 -43 -52 -79 15 -79 145 0 85 -13 127 -26 85 -12 -42 -31 -68 -50 -71 -33
-5 -115 58 -161 123 -63 90 -140 252 -163 341 -53 205 -34 421 75 854 82 327
143 510 201 601 16 25 61 132 99 237 39 106 72 192 75 192 3 0 19 -26 35 -58
l29 -57 7 -255 c6 -238 9 -268 43 -445 68 -351 95 -562 107 -818 10 -231 7
-581 -6 -663 -6 -34 -3 -45 18 -69 23 -27 26 -28 55 -16 52 22 132 -9 132 -51
0 -12 -31 -69 -69 -127 -85 -131 -134 -228 -126 -249 8 -21 16 -11 66 83 47
90 87 151 131 201 26 29 33 32 46 22 17 -14 82 -145 82 -165 0 -6 -31 -60 -70
-119 -38 -60 -70 -114 -70 -122 0 -32 37 -2 70 56 44 78 85 129 96 119 4 -4 1
-41 -7 -82 -18 -83 -13 -95 37 -95 33 0 50 13 55 44 6 29 24 30 37 1 13 -28
37 -33 49 -11 4 8 15 16 23 18 11 2 16 -10 20 -52 l5 -55 46 70 c25 39 74 97
109 130 34 33 73 77 86 97 21 33 80 76 89 66 2 -2 -50 -62 -117 -133 -128
-138 -180 -208 -171 -231 9 -24 22 -16 57 39 33 51 201 247 213 247 3 0 -3
-12 -13 -27 -10 -16 -27 -46 -37 -68 -17 -35 -18 -42 -6 -64 20 -34 32 -36 68
-6 28 24 31 25 31 8 0 -60 68 -72 186 -33 l68 23 15 -21 c9 -12 24 -33 34 -47
28 -39 54 -33 67 16 9 31 31 61 84 114 41 39 88 82 106 95 l33 23 -7 -29 c-18
-72 -15 -79 36 -84 57 -7 69 -17 77 -67 8 -46 31 -53 93 -28 37 15 42 15 59 0
23 -22 57 -11 65 21 15 59 -26 70 -114 29 -70 -33 -81 -32 -43 4 37 34 39 58
9 96 -22 28 -46 30 -115 9 -32 -9 -29 4 17 65 42 55 53 98 24 87 -32 -12 -166
-110 -256 -187 -51 -43 -98 -79 -104 -79 -25 0 -164 206 -164 243 0 10 29 59
65 109 36 50 65 95 65 100 0 13 -52 -17 -125 -73 l-67 -51 -30 29 c-62 59
-212 294 -276 432 -95 206 -136 565 -120 1048 7 225 22 328 77 546 69 270 151
446 284 614 74 93 162 263 247 476 23 59 50 117 59 130 10 12 25 48 35 80 27
85 51 101 151 94 84 -5 112 -14 315 -97 69 -28 179 -69 245 -92 134 -45 292
-122 405 -197 41 -27 136 -105 210 -173 178 -161 220 -195 277 -220 107 -47
375 -35 442 20 15 12 24 35 30 77 20 135 87 248 209 351 137 115 256 153 582
184 176 16 247 28 390 64 96 24 218 51 271 60 125 21 296 22 372 1 117 -31
317 -124 349 -162 19 -23 15 -257 -7 -408 -21 -141 -23 -294 -6 -385 7 -35 35
-132 62 -215 73 -220 80 -259 86 -518 6 -264 -5 -434 -47 -682 -46 -272 -70
-544 -60 -670 4 -53 10 -67 49 -112 24 -29 54 -59 67 -68 22 -14 26 -13 62 19
l38 35 49 -67 c42 -56 115 -211 115 -243 0 -5 -29 -44 -65 -86 -36 -42 -65
-82 -65 -90 0 -28 31 -10 87 51 32 35 68 69 81 75 17 9 21 18 17 32 -6 17 -3
20 17 17 22 -3 23 -6 20 -70 -4 -78 2 -82 77 -48 55 26 63 25 91 -5 31 -33 52
-32 95 9 l35 34 104 -5 c155 -8 203 14 170 78 -8 17 -14 35 -12 40 3 10 122
-43 132 -59 14 -23 -96 -86 -274 -158 -60 -24 -105 -48 -105 -56 0 -26 62 -10
193 51 183 84 240 94 257 43 11 -38 55 -39 55 -2 0 13 9 22 26 26 35 9 178 -1
201 -15 16 -9 13 -12 -24 -27 -46 -18 -58 -44 -20 -44 13 0 61 18 107 41 100
48 175 69 247 69 57 0 60 2 38 40 -8 14 -14 32 -15 40 0 15 109 144 116 137 2
-2 -5 -30 -16 -63 -27 -76 -36 -164 -21 -192 15 -28 23 -28 61 5 31 25 33 26
60 10 15 -10 42 -17 58 -17 17 0 38 -7 47 -16 19 -19 16 -21 85 66 48 59 50
65 31 68 -12 2 -42 -8 -67 -23 -25 -15 -47 -25 -50 -23 -2 3 1 19 7 36 13 38
8 84 -9 90 -8 2 -49 -32 -91 -77 -43 -44 -84 -81 -91 -81 -24 0 -3 94 54 243
31 80 56 148 56 153 -1 5 -18 23 -39 39 l-38 30 40 15 c22 8 40 20 39 25 -2
17 -39 17 -72 0 -29 -15 -32 -20 -26 -53 20 -128 21 -119 -18 -177 -21 -29
-62 -77 -92 -105 l-55 -52 -54 68 c-258 324 -492 681 -531 809 -71 235 -90
705 -34 861 11 32 30 111 41 174 11 63 30 140 41 170 55 153 98 344 128 565
12 88 27 185 33 215 l12 55 115 7 c139 9 242 34 358 89 48 22 138 61 200 85
117 45 172 73 172 86 0 6 120 159 205 261 22 26 64 61 92 77 63 36 188 152
210 194 8 17 23 40 33 51 10 11 20 45 24 78 12 110 55 165 221 287 72 52 127
100 130 113 4 12 27 66 51 119 54 119 92 253 133 468 85 440 105 533 137 629
42 128 80 194 159 286 215 247 278 403 310 768 8 86 19 166 25 177 6 11 25 27
42 36 17 9 52 37 78 63 26 26 78 63 116 83 80 42 111 71 124 119 6 19 10 155
10 302 l0 269 32 76 c29 71 32 87 32 192 1 63 -3 202 -7 309 l-8 193 31 -22
c32 -23 54 -63 85 -155 27 -77 113 -154 277 -248 76 -43 150 -91 166 -105 16
-15 52 -70 81 -123 69 -129 88 -149 143 -149 59 0 101 28 138 92 60 104 110
323 110 481 0 216 -108 437 -306 626 -97 94 -250 202 -346 246 -41 19 -84 28
-156 34 -56 5 -116 17 -136 26 -61 29 -57 37 29 50 161 26 390 102 504 167
201 115 378 310 430 475 103 327 7 678 -215 782 -86 41 -112 13 -60 -64 51
-74 92 -247 83 -348 -14 -172 -145 -337 -352 -444 -199 -102 -465 -184 -465
-143 0 6 -17 10 -38 10 -34 0 -40 4 -54 34 -22 44 -71 100 -111 125 -95 58
-321 79 -502 46 -92 -17 -216 -22 -236 -9 -21 13 -296 21 -446 14 -142 -7
-153 -9 -258 -49 -60 -24 -132 -46 -159 -49 l-50 -7 -45 -80 -46 -80 -70 -3
c-70 -3 -274 32 -380 65 -74 23 -211 96 -286 153 -105 79 -223 209 -264 293
-45 91 -55 154 -55 342 0 149 -11 225 -32 225 -6 0 -28 -18 -49 -41z m3999
-198 c22 -42 45 -100 51 -129 27 -129 1 -348 -54 -468 -36 -75 -188 -231 -258
-264 -26 -12 -61 -40 -78 -61 -37 -47 -74 -60 -93 -33 -13 17 -16 16 -57 -14
-36 -27 -44 -30 -52 -17 -13 23 -23 18 -33 -17 -10 -32 -11 -33 -69 -33 -62 0
-63 1 -89 60 -8 19 -26 -20 -26 -57 0 -20 -3 -39 -7 -41 -5 -3 -32 -8 -61 -12
l-54 -7 7 46 c9 55 -8 63 -29 14 l-13 -33 -21 66 c-11 36 -23 86 -27 111 l-7
45 84 5 c100 6 222 45 384 122 186 89 289 166 371 279 80 109 101 302 50 472
-15 49 -27 96 -27 105 1 25 65 -57 108 -139z m-3976 6 c-4 -113 -2 -144 17
-217 38 -152 67 -198 209 -339 139 -138 237 -210 346 -252 97 -37 312 -78 456
-86 65 -3 124 -9 130 -13 9 -6 8 -21 -3 -61 -26 -89 -57 -246 -57 -284 0 -46
-24 -46 -51 0 -23 38 -49 47 -49 16 0 -33 -20 -35 -51 -5 -27 26 -30 27 -48
10 -20 -18 -81 -24 -120 -11 -11 3 -28 20 -37 36 -15 30 -16 30 -41 14 -13 -9
-27 -15 -29 -12 -3 3 0 25 7 51 12 47 8 76 -11 76 -14 0 -40 -62 -40 -95 0
-30 4 -30 -65 -4 -61 23 -115 63 -115 85 0 8 -10 14 -26 14 -59 0 -241 125
-285 196 -11 19 -34 41 -50 50 -31 16 -107 112 -141 178 -29 57 -65 210 -78
331 -13 118 -2 195 44 307 28 68 74 148 85 148 5 0 6 -60 3 -133z m2408 -656
c374 6 399 4 462 -49 17 -14 37 -42 46 -62 37 -88 87 -306 76 -334 -3 -7 -46
-37 -97 -67 -51 -31 -92 -62 -92 -70 0 -25 42 -21 114 10 82 36 81 36 81 12 0
-13 -26 -35 -80 -70 -44 -28 -80 -57 -80 -66 0 -8 5 -15 10 -15 16 0 91 39
127 66 17 13 36 24 41 24 4 0 35 -20 67 -45 73 -57 95 -63 133 -35 26 19 33
20 73 10 54 -14 178 -79 278 -145 138 -91 293 -270 373 -432 l43 -87 0 -215
c-1 -176 -4 -229 -19 -286 -27 -102 -71 -180 -112 -200 -60 -28 -90 -4 -165
131 -58 106 -95 140 -235 212 -122 63 -144 84 -144 133 0 11 -7 34 -16 51 -10
20 -18 68 -21 133 l-6 101 54 74 c29 41 63 90 76 108 39 53 59 45 162 -64 50
-53 112 -128 137 -168 86 -132 96 -144 110 -150 8 -3 17 1 20 8 7 19 -51 157
-93 218 -18 28 -31 53 -28 56 3 3 22 -10 43 -30 20 -20 53 -43 72 -52 19 -9
43 -21 52 -28 9 -7 20 -9 24 -5 14 14 -18 87 -78 178 -55 82 -76 104 -168 173
-143 107 -206 136 -293 136 -79 0 -143 -26 -184 -74 -14 -17 -48 -78 -76 -136
-27 -58 -51 -100 -54 -93 -2 6 9 74 25 150 17 76 33 161 36 188 l5 50 -31 -65
c-17 -36 -33 -82 -36 -103 -3 -27 -11 -41 -26 -47 -61 -23 -74 -84 -105 -480
-11 -141 -26 -270 -32 -288 -11 -32 -12 -32 -31 -16 -25 24 -108 190 -108 219
0 26 -45 78 -63 72 -7 -2 -12 -24 -12 -58 0 -66 33 -138 102 -223 97 -119 109
-140 121 -215 7 -39 15 -187 18 -329 6 -256 6 -257 -18 -301 -24 -46 -55 -74
-95 -86 -22 -6 -23 -4 -23 54 0 33 5 72 11 88 6 15 17 74 24 131 11 90 16 106
39 127 32 29 29 54 -12 97 -60 64 -229 86 -322 41 l-45 -21 105 5 c87 5 111 3
138 -11 38 -20 42 -36 8 -36 -30 0 -81 -42 -102 -83 -25 -47 -12 -90 50 -171
56 -72 61 -88 50 -143 -5 -24 -19 -36 -83 -71 -108 -58 -171 -73 -346 -79
l-150 -6 -15 34 c-13 28 -21 35 -54 39 -39 5 -39 5 -58 73 -17 65 -43 117 -57
117 -12 0 -54 -124 -59 -173 -6 -63 -26 -72 -64 -26 -56 67 -72 129 -72 284
-1 83 -5 142 -11 145 -13 7 -34 -55 -34 -102 -1 -20 -6 -40 -13 -44 -7 -5 -44
27 -99 83 -90 94 -149 191 -149 244 0 15 -4 30 -9 33 -5 3 -12 43 -16 88 -19
244 -69 495 -110 562 -14 22 -41 60 -59 82 -25 31 -34 55 -39 95 -4 44 -47
157 -85 228 -13 24 -27 17 -38 -19 -6 -19 -16 -36 -21 -37 -6 -2 -31 12 -57
32 -25 19 -48 35 -51 35 -3 0 -5 -14 -5 -30 0 -42 -21 -80 -69 -123 -49 -44
-91 -66 -218 -113 -54 -20 -112 -47 -129 -60 -17 -13 -56 -62 -86 -110 -57
-93 -84 -118 -72 -67 52 224 174 398 339 480 110 56 247 102 328 113 78 9 101
25 128 86 19 41 19 42 -7 115 -35 98 -30 183 19 335 19 60 38 133 42 162 9 64
16 70 153 117 225 76 296 86 602 78 124 -3 313 -4 420 -2z m-3305 -58 c28 -11
74 -29 103 -38 95 -29 343 -177 402 -240 39 -41 7 -28 -71 29 -113 82 -300
169 -407 189 -61 12 -30 -14 93 -79 66 -35 122 -69 125 -76 3 -7 25 -41 49
-76 37 -50 56 -67 105 -90 34 -16 82 -45 108 -65 26 -20 66 -46 89 -58 93 -47
321 -119 471 -149 42 -8 83 -28 148 -70 161 -107 246 -140 352 -140 39 0 68
-4 68 -10 0 -5 -5 -10 -11 -10 -25 0 -152 -95 -205 -153 -62 -68 -134 -184
-161 -258 -9 -27 -20 -49 -23 -49 -10 0 -215 213 -271 281 -30 36 -66 87 -82
113 -30 52 -53 53 -43 2 11 -55 68 -127 285 -359 57 -62 91 -107 91 -120 0
-21 -28 -178 -36 -206 -3 -8 -31 29 -64 83 -82 133 -172 267 -240 356 -69 91
-100 144 -135 233 -17 42 -33 67 -42 67 -48 0 49 -235 140 -339 91 -104 228
-323 291 -466 31 -71 36 -96 45 -210 14 -199 34 -232 162 -277 61 -22 65 -25
94 -83 32 -64 37 -113 21 -226 -7 -47 -5 -61 13 -98 21 -41 23 -42 41 -26 27
24 77 150 86 213 14 107 22 92 144 -258 97 -278 159 -438 233 -605 78 -175 96
-237 112 -382 8 -75 17 -139 20 -141 2 -3 10 8 16 24 15 39 5 357 -15 449 -8
39 -33 113 -54 165 -22 52 -65 172 -97 265 -32 94 -64 182 -72 197 -7 15 -13
40 -13 55 0 15 -9 47 -20 71 -10 23 -22 59 -26 80 -4 20 -13 44 -21 53 -8 10
-21 53 -28 97 -15 86 -8 137 22 168 16 15 18 15 36 -7 21 -25 136 -259 234
-473 57 -127 122 -323 180 -546 31 -122 35 -152 40 -310 5 -149 2 -193 -16
-297 -25 -143 -26 -218 -6 -608 23 -474 28 -805 15 -945 -7 -69 -14 -206 -16
-305 l-4 -180 -68 -69 c-79 -82 -120 -110 -186 -130 -68 -21 -117 -58 -151
-116 -17 -27 -33 -50 -37 -50 -3 0 -12 32 -18 72 -25 144 14 627 80 998 36
205 43 343 44 837 1 265 -2 485 -6 489 -5 4 -11 4 -15 1 -3 -4 -12 -249 -19
-544 -14 -555 -16 -581 -73 -958 -34 -224 -51 -464 -51 -710 0 -154 2 -168 22
-195 l21 -29 -34 -57 c-56 -94 -95 -127 -195 -163 -49 -18 -101 -35 -116 -38
-26 -5 -28 -3 -28 28 0 19 7 72 15 119 19 108 19 110 -4 110 -27 0 -49 -62
-67 -189 -17 -113 -27 -131 -74 -131 -40 0 -41 7 -9 58 49 80 56 129 89 644 5
87 17 190 26 230 23 105 99 381 129 467 30 90 31 102 5 75 -66 -66 -204 -560
-225 -804 -9 -113 -14 -130 -35 -130 -23 0 -36 41 -45 145 -8 80 1 139 51 340
51 205 78 282 160 456 101 213 115 270 121 492 4 119 2 177 -5 177 -13 0 -19
-30 -33 -169 -18 -189 -66 -341 -116 -364 -13 -5 -25 -8 -28 -5 -3 3 3 48 14
99 33 152 63 381 56 424 -6 39 -20 65 -36 65 -5 0 -9 -28 -9 -62 -1 -127 -90
-428 -205 -693 -141 -324 -305 -831 -305 -943 0 -32 -29 -73 -59 -83 -10 -4
-8 -13 8 -39 12 -20 21 -52 21 -74 0 -34 -6 -46 -47 -83 -35 -33 -44 -46 -35
-55 20 -20 14 -24 -23 -20 -38 5 -45 -7 -19 -32 16 -16 25 -19 79 -20 26 -1
30 -5 33 -31 9 -77 -36 -272 -75 -323 -19 -26 -22 -36 -13 -47 8 -10 9 -19 0
-35 -10 -18 -7 -25 20 -50 28 -26 31 -34 28 -82 -3 -52 -4 -53 -37 -58 -45 -7
-50 -25 -12 -45 36 -18 36 -21 15 -112 -19 -85 -37 -111 -163 -245 -57 -61
-101 -116 -101 -127 0 -11 11 -32 23 -47 l24 -27 36 28 37 27 -13 -28 c-6 -16
-28 -58 -49 -94 -51 -91 -53 -105 -27 -131 22 -22 23 -28 24 -273 1 -139 7
-305 15 -373 12 -111 12 -124 -3 -147 -9 -14 -17 -33 -17 -43 0 -46 94 -177
134 -187 17 -4 26 -15 30 -41 13 -67 83 -170 199 -292 l59 -62 -68 -31 c-38
-18 -107 -44 -154 -60 -47 -15 -121 -42 -165 -60 -104 -42 -130 -49 -143 -41
-6 4 -23 37 -37 75 -44 117 -89 186 -122 186 -7 0 -18 11 -23 24 -7 19 -18 25
-59 31 -94 13 -101 48 -60 300 22 134 23 162 22 655 -1 428 -4 534 -18 630
-19 128 -58 291 -110 450 -37 118 -42 146 -54 311 -8 105 -12 124 -51 210 -23
52 -46 110 -51 129 -5 19 -13 143 -18 275 -10 246 -17 303 -53 414 -26 79 -21
130 22 266 34 106 114 322 174 469 20 49 34 92 31 94 -2 2 -11 2 -20 -2 -22
-8 -69 -113 -149 -331 -99 -267 -127 -335 -137 -330 -12 8 -29 75 -29 118 0
42 25 127 153 527 106 327 122 383 147 501 24 112 25 172 6 188 -20 17 -32 -8
-40 -84 -19 -171 -44 -272 -131 -525 -84 -247 -129 -360 -133 -335 -3 20 23
116 112 419 53 180 99 394 94 439 -2 17 -8 32 -14 34 -17 5 -30 -40 -50 -164
-23 -149 -25 -155 -71 -151 l-36 3 -13 -65 c-15 -82 -29 -114 -91 -217 -28
-45 -60 -107 -73 -139 -31 -76 -41 -51 -29 81 11 116 34 242 88 468 45 188 57
246 65 305 7 44 -6 56 -24 23 -14 -27 -126 -500 -156 -661 -22 -118 -37 -187
-61 -278 -6 -25 18 -59 53 -72 19 -7 23 -19 28 -82 3 -40 9 -94 12 -121 3 -26
3 -59 0 -72 l-6 -25 -243 -1 c-355 0 -424 -8 -593 -62 -133 -43 -313 -88 -434
-108 -130 -22 -450 -50 -635 -55 -303 -9 -451 5 -755 71 -718 157 -784 169
-970 169 -149 1 -193 -9 -326 -69 l-75 -34 20 27 c33 46 182 185 264 246 180
135 341 298 444 451 48 71 119 140 263 254 133 106 230 200 230 223 0 15 -9
18 -45 18 -118 0 -385 -150 -421 -237 -8 -19 -28 -53 -44 -75 -16 -22 -27 -45
-24 -50 11 -17 -19 -38 -75 -54 -31 -9 -72 -28 -91 -43 -20 -16 -59 -32 -92
-39 -85 -17 -126 -37 -146 -73 -9 -18 -25 -41 -35 -51 -23 -25 -17 -31 17 -19
14 6 26 7 26 2 0 -17 -79 -62 -160 -90 -47 -16 -109 -39 -138 -50 -29 -12 -61
-21 -72 -21 -13 0 -22 -9 -26 -28 -7 -31 -51 -82 -71 -82 -7 0 -17 9 -23 20
-6 11 -15 20 -20 20 -15 0 -65 -47 -95 -90 -27 -39 -27 -41 -10 -54 18 -13 17
-16 -14 -55 -38 -48 -99 -98 -154 -126 -46 -23 -97 -78 -97 -104 0 -24 -58
-84 -175 -181 -49 -41 -119 -102 -155 -134 -37 -33 -92 -71 -127 -87 -60 -27
-74 -41 -54 -54 6 -3 44 6 85 21 41 14 80 23 85 20 5 -4 38 12 72 34 79 51
106 58 123 35 12 -17 15 -17 59 4 88 43 101 18 68 -124 -23 -94 -27 -140 -11
-130 5 3 40 60 77 127 67 118 116 176 205 239 l31 22 -7 -39 c-13 -67 -34
-120 -197 -491 -88 -198 -159 -367 -159 -373 0 -22 -141 -158 -184 -179 -23
-10 -47 -25 -53 -33 -6 -7 -26 -60 -43 -118 -18 -58 -42 -115 -53 -128 -34
-37 -90 -47 -166 -28 -35 9 -67 14 -70 11 -4 -5 3 -29 26 -92 3 -8 -4 -13 -21
-13 -20 0 -26 -5 -26 -20 0 -33 26 -75 55 -88 34 -16 40 -15 59 4 15 14 16 14
16 -5 0 -11 14 -36 31 -56 l32 -36 -17 -72 c-21 -93 -36 -378 -36 -681 0 -223
1 -241 21 -272 13 -22 23 -62 29 -116 10 -102 33 -201 64 -282 13 -33 29 -93
36 -133 12 -77 77 -201 132 -253 15 -15 28 -31 28 -35 0 -5 8 -18 18 -29 27
-31 57 -105 46 -115 -23 -22 -420 -149 -430 -138 -3 3 11 37 30 76 35 68 44
101 29 101 -5 0 -37 -30 -72 -65 -36 -36 -70 -65 -77 -65 -16 0 -39 75 -54
175 -14 87 -29 112 -88 137 -118 50 -153 71 -167 99 -19 36 -20 61 -10 289 12
287 -16 576 -97 994 -39 205 -41 219 -48 496 l-7 285 -40 103 c-46 115 -52
100 46 119 77 14 63 32 -47 63 -53 14 -49 21 15 25 26 1 71 12 98 23 l50 21
-102 0 -103 1 0 40 c0 46 31 132 87 245 50 99 90 223 101 312 4 40 3 144 -4
253 -7 102 -15 231 -19 288 l-6 102 33 0 c40 0 48 6 76 50 24 41 37 107 28
144 -3 14 -54 76 -113 138 -268 283 -414 498 -498 732 -19 51 -40 90 -61 110
-18 18 -38 45 -44 60 -22 58 -60 252 -70 354 -15 164 -12 682 5 857 28 281 80
618 111 726 26 90 105 260 148 321 23 31 53 76 68 100 83 134 414 454 753 728
56 46 74 66 62 68 -25 5 -86 -34 -202 -127 -55 -44 -145 -107 -200 -140 -55
-33 -154 -103 -220 -155 -66 -52 -121 -93 -124 -91 -14 15 88 175 200 315 63
78 19 50 -96 -61 -102 -99 -122 -125 -170 -213 -29 -56 -63 -134 -74 -173 -11
-40 -22 -77 -26 -83 -3 -6 -43 -34 -88 -64 -132 -87 -224 -223 -301 -444 -44
-126 -51 -141 -87 -170 -42 -34 -54 -91 -39 -174 18 -91 8 -273 -19 -358 -23
-73 -36 -233 -46 -535 -3 -104 -10 -287 -16 -406 -9 -189 -8 -223 6 -278 19
-75 19 -68 10 -726 -6 -480 -8 -526 -27 -605 -18 -72 -22 -119 -23 -310 -1
-249 -12 -313 -60 -344 -29 -19 -99 -133 -121 -200 -17 -50 -116 -167 -130
-153 -4 4 2 17 14 30 32 34 100 187 122 274 44 179 45 290 10 1638 -13 485
-12 1259 1 1410 11 129 60 528 85 690 46 297 196 679 366 934 90 134 261 286
404 359 65 33 329 137 439 172 138 44 421 115 535 134 381 63 1141 110 1413
87 272 -23 545 -84 686 -154 81 -40 87 -44 101 -87 25 -76 6 -67 232 -115 105
-23 131 -25 143 -15 14 12 13 15 -4 31 -26 25 -75 108 -68 116 4 3 64 -7 134
-22 213 -46 528 -46 908 1 219 27 487 81 624 125 64 22 92 22 191 0 80 -18
163 -13 238 14 75 27 142 31 282 16 108 -12 132 11 40 37 l-35 10 30 1 c36 1
166 -30 249 -58 70 -25 66 -25 66 -6 0 29 -146 86 -287 110 -80 14 -95 14
-207 -4 -259 -41 -364 -37 -407 17 -20 25 -21 34 -15 145 13 228 77 535 128
612 61 92 216 176 398 216 73 16 124 18 360 16 257 -2 278 -3 325 -24z m1569
-588 c33 -9 83 -23 110 -32 81 -26 34 -36 -186 -39 -169 -3 -200 -1 -205 11
-22 58 147 93 281 60z m503 -746 c16 -30 17 -151 2 -217 -19 -90 -106 -166
-249 -218 -123 -44 -192 -101 -265 -219 -21 -33 -47 -71 -59 -83 -53 -59 -164
-85 -204 -49 -46 41 -65 113 -70 259 -5 146 4 268 19 268 5 0 9 -42 9 -94 0
-51 5 -117 10 -146 10 -55 35 -94 53 -83 5 3 36 61 67 127 64 135 101 180 162
196 27 8 63 33 110 77 60 56 73 64 96 58 15 -3 52 -9 82 -11 47 -5 60 -2 90
18 19 13 46 44 60 69 46 85 64 95 87 48z m-783 -158 c3 -5 -1 -12 -10 -15 -20
-8 -29 -1 -19 13 8 13 22 14 29 2z m420 -422 c-8 -17 -31 -67 -49 -111 -38
-89 -60 -119 -81 -111 -26 10 -14 55 38 145 49 86 82 123 100 112 4 -3 1 -19
-8 -35z m319 -15 c-1 -16 -5 -87 -9 -159 l-6 -130 61 -186 c33 -102 61 -193
61 -203 0 -10 13 -31 29 -47 21 -21 35 -52 52 -116 27 -101 44 -123 97 -123
41 0 62 14 62 40 0 9 9 25 19 34 16 14 19 30 19 82 -2 76 13 100 35 58 8 -16
31 -81 52 -144 21 -63 50 -142 65 -176 28 -61 52 -157 91 -359 11 -60 34 -164
50 -230 41 -167 44 -212 24 -445 -26 -300 -25 -412 7 -638 15 -107 32 -200 38
-207 15 -18 6 -74 -26 -173 -26 -79 -93 -222 -104 -222 -18 0 -36 360 -50 990
-17 763 -46 1090 -100 1144 -28 28 -35 14 -20 -41 41 -163 69 -686 52 -953 -8
-130 -17 -190 -32 -234 -12 -32 -24 -95 -27 -140 -10 -141 33 -758 57 -820 7
-20 17 -25 52 -28 l43 -3 -70 -52 c-72 -54 -183 -118 -191 -111 -9 10 -20 388
-13 443 24 166 28 254 28 669 1 407 3 462 22 580 15 94 20 159 17 231 -5 108
-19 159 -74 270 -19 39 -48 120 -64 180 -74 284 -255 737 -401 1001 -40 73
-51 134 -25 134 8 0 24 16 37 36 14 24 40 44 73 60 61 28 72 26 69 -12z m-493
-234 c28 -28 25 -57 -10 -97 l-30 -34 -20 46 c-23 53 -26 91 -7 98 25 11 48 6
67 -13z m2105 -190 c3 -6 -1 -13 -10 -16 -19 -8 -30 0 -20 15 8 14 22 14 30 1z
m-231 -429 c3 -4 -32 -11 -77 -14 -101 -8 -272 -9 -265 -2 15 15 334 30 342
16z m-587 -67 c30 -28 84 -44 173 -50 41 -3 86 -8 100 -11 47 -10 -8 -22 -107
-22 -50 -1 -102 -5 -116 -10 -33 -13 -41 -5 -76 69 -34 71 -41 112 -13 70 9
-14 27 -34 39 -46z m366 -51 c-7 -2 -19 -2 -25 0 -7 3 -2 5 12 5 14 0 19 -2
13 -5z m-431 -380 c52 -110 106 -177 153 -189 17 -4 36 -11 43 -17 19 -15 66
-111 87 -177 9 -30 29 -81 42 -112 l26 -58 -51 -76 c-50 -75 -74 -127 -127
-271 -15 -40 -31 -73 -36 -73 -17 0 -31 44 -26 83 3 22 -1 79 -8 126 -8 47
-32 209 -54 359 -45 301 -53 339 -86 397 -23 39 -28 58 -39 140 l-6 40 17 -35
c9 -19 38 -81 65 -137z m-9722 70 c0 -16 5 -79 10 -141 7 -88 14 -121 31 -149
21 -34 23 -51 31 -337 10 -351 14 -385 79 -653 72 -299 104 -401 174 -557 62
-137 112 -294 102 -320 -3 -8 -21 -16 -39 -20 -19 -3 -65 -19 -103 -36 -73
-31 -119 -38 -130 -19 -4 6 1 16 11 24 18 13 18 14 0 34 -16 18 -17 25 -7 47
6 14 8 30 5 35 -3 6 -37 9 -78 7 l-71 -3 -5 37 c-5 38 -27 72 -51 80 -12 4
-12 10 0 39 26 67 25 79 -6 112 -17 18 -37 46 -45 63 -14 29 -14 32 4 43 32
20 51 78 39 114 -6 16 -11 53 -11 81 0 29 -5 57 -11 63 -20 20 -31 287 -26
638 4 321 7 369 36 585 17 129 33 241 36 248 8 22 25 12 25 -15z m454 -1711
c24 -39 38 -72 31 -72 -6 0 -75 103 -75 113 0 15 21 -4 44 -41z m176 -277 c56
-82 113 -161 125 -175 27 -29 40 -82 27 -106 -8 -14 -14 -10 -39 27 -72 105
-233 393 -233 416 0 12 15 -7 120 -162z m5574 -431 c35 -13 58 -31 80 -62 17
-23 61 -63 99 -88 37 -24 67 -51 67 -59 0 -23 -54 -18 -87 8 -40 33 -302 142
-410 171 -51 13 -98 28 -104 32 -27 16 31 24 166 20 108 -2 151 -7 189 -22z
m504 -86 c7 -7 12 -22 12 -35 0 -12 9 -46 20 -75 11 -28 17 -54 15 -57 -7 -6
-99 83 -128 123 l-21 29 28 -7 c23 -6 29 -3 33 14 6 23 23 26 41 8z m1418
-230 c-17 -322 -70 -638 -105 -638 -15 0 -14 34 9 178 10 70 28 204 40 297 28
225 40 295 52 295 7 0 9 -43 4 -132z m-4221 -28 c3 -5 -3 -10 -15 -10 -12 0
-18 5 -15 10 3 6 10 10 15 10 5 0 12 -4 15 -10z m-905 -114 c0 -17 -27 -29
-35 -16 -4 6 -3 15 0 20 9 15 35 12 35 -4z m2625 4 c7 -11 -96 -43 -127 -38
l-23 3 23 13 c19 11 64 23 114 31 4 1 9 -3 13 -9z m-251 -75 c-82 -27 -209
-47 -437 -70 -104 -10 -203 -27 -294 -51 -75 -19 -142 -33 -150 -30 -18 7 -16
36 4 58 12 13 31 18 72 18 43 0 52 3 43 12 -7 7 -12 22 -12 35 l0 23 51 -26
c41 -20 61 -25 93 -20 23 3 93 10 156 16 63 6 162 17 220 25 140 20 247 32
290 33 29 0 23 -4 -36 -23z m996 -15 c104 -26 234 -76 250 -95 6 -8 10 -21 8
-29 -2 -13 -17 -10 -93 15 -95 32 -237 97 -270 124 l-20 16 20 -5 c11 -3 58
-15 105 -26z m-2035 -61 c65 -18 68 -39 21 -118 -21 -34 -36 -72 -36 -90 0
-19 -19 -65 -50 -119 -27 -48 -60 -119 -74 -158 -13 -40 -29 -81 -36 -94 -15
-27 -63 -48 -157 -66 -65 -12 -84 -12 -144 1 -98 20 -159 56 -274 164 -103 97
-120 120 -130 183 -5 34 -12 41 -75 73 -63 34 -109 70 -99 79 2 2 30 -1 61 -7
55 -10 60 -9 105 19 27 17 55 44 65 63 20 40 34 51 69 51 14 0 30 5 35 10 21
21 143 28 404 26 186 -3 280 -8 315 -17z m-4727 -436 c-2 -5 -24 -51 -50 -103
-51 -105 -174 -458 -212 -608 -14 -53 -39 -167 -56 -252 -17 -85 -34 -162 -37
-170 -9 -24 -21 26 -22 97 -1 74 49 378 84 511 54 204 148 397 238 490 37 37
65 55 55 35z m-178 -108 c-7 -9 -15 -13 -18 -10 -3 2 1 11 8 20 7 9 15 13 18
10 3 -2 -1 -11 -8 -20z m190 -17 c0 -6 -27 -104 -61 -217 -34 -113 -78 -280
-99 -371 -21 -91 -41 -174 -44 -185 -3 -11 -3 21 0 70 14 244 138 715 188 715
9 0 16 -5 16 -12z m-241 -72 c-23 -39 -29 -44 -29 -22 0 15 40 69 47 63 2 -3
-6 -21 -18 -41z m-94 -271 c-45 -147 -54 -169 -49 -120 7 68 44 204 77 279 40
94 28 23 -28 -159z m476 74 c0 -67 -4 -126 -9 -131 -15 -15 -21 71 -12 152 5
41 9 84 10 94 0 11 2 17 5 14 4 -3 6 -61 6 -129z m6963 -20 c-8 -13 -24 -1
-24 18 0 13 3 13 15 3 8 -7 12 -16 9 -21z m-122 -54 c3 -16 11 -20 43 -19 22
0 52 4 67 8 24 7 29 5 38 -19 8 -21 15 -26 33 -22 92 21 84 23 106 -22 32 -62
73 -214 69 -257 -3 -34 -7 -40 -33 -44 -42 -7 -42 -30 0 -106 20 -36 34 -71
32 -78 -3 -7 -24 -16 -46 -20 -54 -8 -54 -32 0 -46 64 -17 73 -51 65 -230 -3
-80 -2 -194 3 -255 6 -74 5 -116 -2 -130 -28 -53 3 -271 54 -383 33 -73 34
-98 17 -254 -9 -87 -9 -116 2 -148 10 -31 11 -43 2 -52 -18 -18 -14 -46 8 -65
11 -10 20 -23 20 -30 0 -14 -184 -209 -212 -224 -16 -9 -17 -5 -11 50 7 74 -6
98 -74 137 -27 15 -69 49 -94 76 -43 45 -48 48 -97 48 -62 0 -87 20 -98 76 -4
20 -4 127 -1 238 4 154 12 234 32 341 44 239 54 342 61 600 8 342 -1 435 -60
590 -25 66 -46 125 -46 130 1 6 21 25 45 43 35 25 45 39 45 61 0 47 23 51 32
6z m-7036 -77 c-13 -62 -27 -168 -41 -313 -8 -88 -22 -198 -31 -245 -24 -131
-84 -299 -84 -235 0 105 87 636 125 763 15 50 40 75 31 30z m11 -275 c-3 -10
-5 -4 -5 12 0 17 2 24 5 18 2 -7 2 -21 0 -30z m-232 -192 c-4 -23 -11 -44 -17
-47 -10 -6 -2 70 9 89 11 18 15 -4 8 -42z m272 -18 c-3 -10 -5 -2 -5 17 0 19
2 27 5 18 2 -10 2 -26 0 -35z m-226 -115 c-11 -142 -35 -243 -66 -284 -14 -17
-14 -15 -9 26 20 154 73 415 82 406 2 -3 -1 -69 -7 -148z m200 -21 c-13 -13
-15 21 -3 50 6 15 8 13 10 -11 2 -16 -1 -33 -7 -39z m61 -39 c-9 -9 -12 -7
-12 12 0 19 3 21 12 12 9 -9 9 -15 0 -24z m-83 -74 c-17 -42 -22 -13 -8 38 11
37 14 39 17 17 1 -14 -2 -38 -9 -55z m57 -29 c-13 -35 -15 -37 -15 -13 -1 33
21 90 26 68 2 -9 -3 -33 -11 -55z m-90 -132 c-8 -44 -18 -125 -21 -179 -8
-119 -17 -149 -55 -191 -35 -39 -40 -40 -40 -13 0 47 77 360 109 444 19 48 21
24 7 -61z m338 31 c-19 -58 -61 -134 -74 -134 -10 0 -4 19 27 85 53 113 77
138 47 49z m-448 -88 c-16 -54 -36 -83 -36 -51 0 21 41 117 47 111 3 -2 -2
-29 -11 -60z m7684 29 c0 -8 -4 -15 -10 -15 -5 0 -10 7 -10 15 0 8 5 15 10 15
6 0 10 -7 10 -15z m0 -69 c0 -8 -4 -18 -10 -21 -5 -3 -10 3 -10 14 0 12 5 21
10 21 6 0 10 -6 10 -14z m-7510 -119 c0 -5 -7 -4 -15 3 -8 7 -15 20 -15 29 1
13 3 13 15 -3 8 -11 15 -24 15 -29z m7588 -1024 c-53 -65 -258 -211 -258 -184
0 15 109 130 154 163 21 15 51 28 66 28 17 0 31 7 35 18 5 12 9 13 12 4 3 -7
-1 -20 -9 -29z m82 -36 c0 -8 -11 -19 -25 -25 -52 -24 -75 -7 -33 22 28 20 58
21 58 3z m-6817 -97 c3 -11 1 -20 -4 -20 -10 0 -29 33 -29 51 0 18 27 -7 33
-31z m57 -74 c0 -27 -28 -43 -36 -21 -6 16 12 45 27 45 5 0 9 -11 9 -24z
m-270 -25 c0 -5 -7 -11 -15 -15 -9 -3 -15 0 -15 9 0 8 7 15 15 15 8 0 15 -4
15 -9z m1690 -1 c0 -12 -28 -25 -36 -17 -9 9 6 27 22 27 8 0 14 -5 14 -10z
m5180 1 c0 -6 -28 -30 -62 -54 -80 -56 -88 -60 -88 -48 0 6 27 33 61 61 57 47
89 62 89 41z m1067 -56 c-15 -14 -33 -25 -40 -25 -7 0 2 11 18 25 39 32 58 32
22 0z m-6864 -142 c-7 -2 -21 -2 -30 0 -10 3 -4 5 12 5 17 0 24 -2 18 -5z"/>
<path d="M10097 9293 c-20 -43 -26 -48 -60 -51 -42 -4 -42 -4 -23 -35 8 -12
22 -56 31 -97 26 -119 63 -164 164 -198 63 -21 207 -125 227 -163 8 -16 17
-29 21 -29 9 0 -4 179 -17 233 -9 34 -28 65 -62 103 -91 99 -154 127 -84 38
44 -58 45 -69 5 -49 -58 31 -51 9 26 -83 42 -51 74 -96 71 -100 -4 -3 -19 9
-34 28 -37 48 -71 76 -160 134 -51 34 -84 63 -97 88 l-19 37 23 53 c27 60 39
138 22 138 -6 0 -21 -21 -34 -47z"/>
<path d="M11600 9288 c-11 -18 -29 -63 -40 -100 -19 -62 -27 -72 -100 -138
-44 -40 -83 -85 -89 -102 -16 -44 -14 -113 3 -128 12 -9 19 -4 36 29 11 23 44
65 74 94 51 51 136 198 136 235 0 8 12 35 26 59 28 48 25 83 -7 83 -11 0 -28
-14 -39 -32z"/>
<path d="M11370 9124 c-28 -44 -72 -97 -96 -120 -46 -43 -50 -56 -44 -149 3
-48 14 -71 41 -86 35 -18 48 7 58 109 9 81 16 106 61 199 66 135 55 160 -20
47z"/>
<path d="M10556 8719 c-8 -41 -8 -278 1 -359 9 -87 22 -56 33 79 13 164 -13
383 -34 280z"/>
<path d="M10490 8191 c-14 -28 -12 -61 4 -61 16 0 46 42 46 65 0 22 -37 19
-50 -4z"/>
<path d="M10650 7984 c-103 -47 -138 -102 -126 -198 7 -52 57 -156 76 -156 16
0 12 97 -5 114 -20 20 -19 39 5 61 11 10 29 37 40 61 13 27 40 57 71 79 87 62
47 89 -61 39z"/>
<path d="M10920 8002 c0 -11 110 -62 135 -62 26 0 13 22 -26 41 -42 22 -109
35 -109 21z"/>
<path d="M10725 7875 c-50 -18 -85 -57 -85 -95 0 -36 46 -76 106 -91 24 -6 47
-15 49 -19 3 -5 -6 -22 -20 -38 -50 -60 -17 -72 44 -16 41 36 91 123 91 156 0
78 -100 133 -185 103z"/>
<path d="M7225 9224 c-59 -15 -115 -37 -115 -45 0 -6 76 -9 188 -8 174 2 195
0 294 -25 59 -15 140 -41 180 -57 98 -41 197 -54 331 -44 69 4 105 11 99 17
-13 13 -175 44 -324 63 -71 8 -215 33 -321 54 -198 40 -296 54 -332 45z"/>
<path d="M8450 8836 c0 -8 36 -74 81 -147 111 -183 167 -290 240 -454 106
-240 125 -314 164 -630 25 -213 52 -325 125 -529 65 -183 100 -312 100 -373 0
-15 5 -35 10 -43 9 -13 11 -13 20 0 25 39 -4 182 -86 418 -80 229 -99 306
-114 447 -25 245 -68 457 -121 597 -95 250 -365 728 -411 728 -4 0 -8 -6 -8
-14z"/>
<path d="M8310 8474 c0 -4 20 -29 45 -55 25 -26 45 -53 45 -59 0 -7 15 -30 34
-53 92 -113 215 -415 372 -912 60 -191 90 -265 106 -265 21 0 -3 90 -105 400
-147 441 -203 577 -319 764 -83 135 -125 186 -153 186 -14 0 -25 -3 -25 -6z"/>
<path d="M9803 6398 c8 -167 49 -584 81 -833 50 -380 88 -827 90 -1043 1 -125
-2 -154 -14 -162 -16 -10 -16 -45 1 -122 12 -51 22 -59 38 -30 17 32 23 282
12 503 -12 238 -27 395 -71 749 -39 310 -56 470 -80 746 -24 279 -32 324 -52
324 -8 0 -9 -40 -5 -132z"/>
<path d="M4524 5778 c-41 -13 -91 -54 -81 -65 14 -13 202 -16 227 -3 28 15 23
51 -10 67 -29 15 -92 15 -136 1z"/>
<path d="M9466 5478 c-12 -17 -16 -50 -16 -143 0 -225 -36 -444 -110 -672 -48
-147 -55 -198 -25 -198 16 0 21 11 30 70 7 39 28 122 48 185 44 137 82 303 96
420 13 105 14 347 2 355 -5 3 -17 -5 -25 -17z"/>
<path d="M2400 3904 c-36 -16 -80 -52 -80 -66 0 -18 46 -6 92 23 72 46 64 76
-12 43z"/>
<path d="M1432 3779 c-54 -21 13 -65 80 -52 23 5 43 14 45 20 9 25 -85 49
-125 32z"/>
<path d="M9907 721 c-137 -70 -363 -319 -355 -391 3 -27 24 -36 48 -20 12 8
13 13 2 30 -10 17 -10 26 4 52 24 47 218 238 292 287 34 23 62 46 62 51 0 14
-11 12 -53 -9z"/>
<path d="M7002 718 c-7 -7 -12 -18 -12 -25 0 -20 36 -87 55 -103 30 -25 33
-54 19 -166 -17 -141 -18 -187 -1 -182 17 6 35 99 36 193 2 97 9 114 38 83 46
-51 93 -179 93 -255 0 -24 2 -43 4 -43 3 0 38 15 79 34 40 18 97 41 125 50 29
10 52 23 52 30 0 19 -39 66 -54 66 -7 0 -31 -20 -54 -45 -44 -48 -68 -58 -57
-25 10 31 -11 52 -36 37 -24 -15 -30 -7 -60 74 -17 45 -38 73 -104 138 -65 63
-84 89 -87 113 -3 35 -17 45 -36 26z"/>
<path d="M3978 483 c-127 -123 -288 -327 -288 -364 0 -11 19 -14 81 -14 73 0
83 2 100 24 28 34 24 48 -11 43 -25 -4 -30 -1 -30 16 0 12 -8 25 -17 30 -16 9
-16 12 0 35 9 14 68 79 131 145 63 67 120 130 126 141 22 42 -13 21 -92 -56z"/>
<path d="M404 517 c-3 -8 7 -53 21 -101 14 -49 25 -108 25 -133 0 -50 14 -83
35 -83 20 0 19 28 -5 145 -19 91 -52 185 -65 185 -3 0 -8 -6 -11 -13z"/>
<path d="M130 494 c0 -11 20 -62 45 -114 33 -70 45 -107 45 -142 0 -56 12 -67
37 -33 18 25 19 26 62 10 24 -8 47 -12 52 -9 13 8 11 78 -2 91 -6 6 -17 9 -24
6 -33 -12 -98 44 -154 134 -40 64 -61 84 -61 57z"/>
<path d="M9790 489 c-52 -31 -119 -88 -131 -110 -13 -26 4 -49 36 -49 26 0 53
26 34 32 -22 7 -1 37 48 67 76 47 94 62 88 72 -10 15 -38 10 -75 -12z"/>
<path d="M9894 435 c-35 -52 -40 -92 -11 -83 14 5 77 106 77 125 0 30 -32 9
-66 -42z"/>
<path d="M6706 391 c-3 -5 10 -28 29 -52 19 -24 35 -51 35 -60 0 -24 26 -42
50 -34 29 9 25 36 -15 88 -45 59 -85 82 -99 58z"/>
<path d="M6926 372 c-2 -4 0 -27 4 -52 5 -25 9 -48 10 -52 0 -5 9 -8 20 -8 28
0 37 44 17 86 -16 32 -40 44 -51 26z"/>
<path d="M1824 278 c-52 -54 -74 -87 -74 -110 0 -47 40 -6 123 123 29 45 -1
37 -49 -13z"/>
</g>
</svg>
